REM DIRINDEX 1\2\4,1\2\5,1\2\6,1\3\7,1\3\8
REM DIRNAME cjc128,folder01,folder02,folder03,folder04,folder05,folder06,folder07
TITLE ""
FILE "039_Proficiency Test04.mp3" MP3
  TRACK 01 AUDIO
    TITLE "0:"
    INDEX 01 00:00:00
  TRACK 02 AUDIO
    TITLE "6:cjc128_2259"
    INDEX 01 00:00:23
  TRACK 03 AUDIO
    TITLE "0:"
    INDEX 01 00:02:36
  TRACK 04 AUDIO
    TITLE "6:cjc128_2260"
    INDEX 01 00:02:73
  TRACK 05 AUDIO
    TITLE "0:"
    INDEX 01 00:05:05
  TRACK 06 AUDIO
    TITLE "4:cjc128_2261"
    INDEX 01 00:05:42
  TRACK 07 AUDIO
    TITLE "0:"
    INDEX 01 00:09:12
  TRACK 08 AUDIO
    TITLE "5:cjc128_2262"
    INDEX 01 00:13:33
  TRACK 09 AUDIO
    TITLE "0:"
    INDEX 01 00:17:37
  TRACK 10 AUDIO
    TITLE "6:cjc128_2263"
    INDEX 01 00:18:11
  TRACK 11 AUDIO
    TITLE "0:"
    INDEX 01 00:20:18
  TRACK 12 AUDIO
    TITLE "4:cjc128_2264"
    INDEX 01 00:21:00
  TRACK 13 AUDIO
    TITLE "0:"
    INDEX 01 00:26:15
  TRACK 14 AUDIO
    TITLE "5:cjc128_2265"
    INDEX 01 00:31:18
  TRACK 15 AUDIO
    TITLE "0:"
    INDEX 01 00:35:57
  TRACK 16 AUDIO
    TITLE "6:cjc128_2266"
    INDEX 01 00:36:38
  TRACK 17 AUDIO
    TITLE "0:"
    INDEX 01 00:38:39
  TRACK 18 AUDIO
    TITLE "4:cjc128_2267"
    INDEX 01 00:39:21
  TRACK 19 AUDIO
    TITLE "0:"
    INDEX 01 00:42:59
  TRACK 20 AUDIO
    TITLE "5:cjc128_2268"
    INDEX 01 00:46:60
  TRACK 21 AUDIO
    TITLE "0:"
    INDEX 01 00:50:21
  TRACK 22 AUDIO
    TITLE "6:cjc128_2269"
    INDEX 01 00:50:68
  TRACK 23 AUDIO
    TITLE "0:"
    INDEX 01 00:52:63
  TRACK 24 AUDIO
    TITLE "4:cjc128_2270"
    INDEX 01 00:53:51
  TRACK 25 AUDIO
    TITLE "0:"
    INDEX 01 00:57:52
  TRACK 26 AUDIO
    TITLE "5:cjc128_2271"
    INDEX 01 01:02:57
  TRACK 27 AUDIO
    TITLE "0:"
    INDEX 01 01:07:39
  TRACK 28 AUDIO
    TITLE "6:cjc128_2272"
    INDEX 01 01:08:17
  TRACK 29 AUDIO
    TITLE "0:"
    INDEX 01 01:10:30
  TRACK 30 AUDIO
    TITLE "4:cjc128_2273"
    INDEX 01 01:11:05
  TRACK 31 AUDIO
    TITLE "0:"
    INDEX 01 01:15:66
  TRACK 32 AUDIO
    TITLE "5:cjc128_2274"
    INDEX 01 01:20:51
  TRACK 33 AUDIO
    TITLE "0:"
    INDEX 01 01:24:63
